<?xml version="1.0" encoding="UTF-8"?>
<svg width="32" height="32" viewBox="0 0 32 32" fill="none" xmlns="http://www.w3.org/2000/svg">
  <!-- Background circle -->
  <circle cx="16" cy="16" r="15" fill="hsl(222.2 47.4% 11.2%)" />
  
  <!-- P -->
  <path d="M11 8h6.5c1.4 0 2.5 0.3 3.2 1s1.1 1.6 1.1 2.7c0 1.1-0.4 2-1.1 2.7s-1.8 1-3.2 1H14v6.6h-3V8z" fill="white"/>
  <path d="M14 12.5h3c0.5 0 0.9-0.1 1.1-0.3s0.4-0.5 0.4-0.8c0-0.4-0.1-0.6-0.4-0.8s-0.6-0.3-1.1-0.3H14v2.2z" fill="hsl(222.2 47.4% 11.2%)"/>
  
  <!-- E -->
  <path d="M18 16h-4v3h6v2h-9V8h9v2h-6v3h4v2z" fill="white"/>
</svg> 